<svg xmlns="http://www.w3.org/2000/svg" viewBox="0 0 17 21" width="17" height="21">
	<style>
		tspan { white-space:pre }
		.shp0 { fill: #cccccc } 
	</style>
	<path id="Shape 15" class="shp0" d="M16.5 9L14 9L14 6C14 3.24 11.76 1 9 1C6.24 1 4 3.24 4 6L4 9L1.5 9C1.22 9 1 9.23 1 9.5L1 13C1 17.42 4.58 21 9 21C13.42 21 17 17.42 17 13L17 9.5C17 9.23 16.77 9 16.5 9ZM9 15.5C8.17 15.5 7.5 14.83 7.5 14C7.5 13.17 8.17 12.5 9 12.5C9.83 12.5 10.5 13.17 10.5 14C10.5 14.83 9.83 15.5 9 15.5ZM6 9L6 6C6 4.35 7.35 3 9 3C10.65 3 12 4.35 12 6L12 9L6 9Z" />
</svg>