<svg xmlns="http://www.w3.org/2000/svg" viewBox="0 0 21 21" width="21" height="21">
	<style>
		tspan { white-space:pre }
		.shp0 { fill: #cccccc } 
	</style>
	<path id="Shape 14" class="shp0" d="M20.33,17.07c-0.88,-1.2 -5.32,-0.7 -6,-2.07c-1.35,-2.71 -0.8,-2.21 0.08,-2.88c0.82,-0.63 0.78,-2.29 1.29,-2.88c0.51,-0.6 0.75,-2.31 0.55,-2.96c-0.25,-0.86 -0.65,-0.39 -0.7,-1.04c-0.13,-1.39 0.22,-2.54 -0.56,-3.22c-0.76,-0.65 -1.71,-2.01 -3.25,-2.03c-0.54,-0.01 -1.15,0.15 -1.85,0.56c-3.33,-0.36 -3.31,3.3 -3.44,4.69c-0.06,0.65 -0.45,0.18 -0.7,1.04c-0.19,0.65 0.04,2.36 0.55,2.96c0.5,0.59 0.46,2.25 1.29,2.88c0.88,0.67 1.43,0.17 0.08,2.88c-0.68,1.37 -5.12,0.87 -6,2.06c-0.67,0.91 -0.67,2.93 -0.67,2.93h10h10c0,0 0,-2.02 -0.67,-2.93z" />
</svg>